<svg width="417" height="417" viewBox="0 0 417 417" fill="none" xmlns="http://www.w3.org/2000/svg">
<g clip-path="url(#clip0_8_22)">
<path d="M355.914 61.065C274.494 -20.355 142.486 -20.355 61.065 61.065C-20.356 142.485 -20.356 274.492 61.065 355.914C142.485 437.334 274.493 437.334 355.914 355.914C437.334 274.492 437.334 142.485 355.914 61.065ZM312.525 258.763C316.979 263.217 316.979 270.438 312.525 274.892L274.893 312.524C270.439 316.978 263.218 316.977 258.763 312.524L208.49 262.249L158.215 312.524C153.762 316.979 146.541 316.977 142.087 312.524L104.455 274.892C100.001 270.438 100.002 263.218 104.455 258.765L154.73 208.489L104.455 158.214C100.002 153.76 100.002 146.539 104.455 142.086L142.088 104.454C146.542 100 153.763 100 158.215 104.454L208.49 154.729L258.764 104.454C263.218 100 270.439 100 274.893 104.454L312.525 142.086C316.978 146.54 316.979 153.761 312.525 158.214L262.25 208.489L312.525 258.763Z" fill="white"/>
</g>
<defs>
<clipPath id="clip0_8_22">
<rect width="416.979" height="416.979" fill="white"/>
</clipPath>
</defs>
</svg>
