<svg width="1211" height="1025" viewBox="0 0 1211 1025" fill="none" xmlns="http://www.w3.org/2000/svg">
<path d="M358 176.1C316.2 180.8 272.5 199.4 238.3 227.1C219.2 242.6 196.8 268.2 183.1 290.2C152.8 338.7 136.3 393.9 131.9 461.5C124.3 578.6 169.4 661.5 284.3 741.7C305.5 756.5 325.1 769 366.5 794C423.5 828.4 445.5 843 474.7 865.7C540.6 916.8 604.3 987 628.4 1035C631.3 1040.8 634.2 1047.1 634.9 1049L636.2 1052.5L638 1047.5C651.9 1007.8 718.9 930.8 794 868C826.9 840.5 855.7 820.4 918 781.5C992.3 735.1 1022.4 713.2 1054.4 682C1102.8 634.9 1128.1 587.3 1137.7 525.3C1140.1 509.8 1140.1 459.2 1137.7 439C1131.8 390 1121.1 352.6 1102 315C1088.5 288.5 1071.9 265.9 1050.9 245.5C1014 209.7 971.7 188.8 920 180.8C906.7 178.8 867.2 179.1 853.5 181.3C774.8 194.4 710 239.6 662.4 314.5C656 324.5 644.5 345.8 639.5 357.1L635.6 365.7L625.5 345.6C620 334.5 611.8 319.6 607.3 312.4C557.6 233.1 486.8 184.9 406.5 176C396 174.8 368.7 174.9 358 176.1Z" fill="#FF2A2A"/>
</svg>
