<svg width="408" height="408" viewBox="0 0 408 408" fill="none" xmlns="http://www.w3.org/2000/svg">
<g clip-path="url(#clip0_8_2)">
<path d="M402.115 84.008L323.088 4.981C319.899 1.792 315.574 0 311.063 0H17.005C7.613 0 0 7.614 0 17.005V390.091C0 399.483 7.613 407.096 17.005 407.096H390.091C399.483 407.096 407.096 399.483 407.096 390.091V96.032C407.096 91.523 405.305 87.197 402.115 84.008ZM300.664 163.567H67.129V38.862H300.664V163.567Z" fill="white"/>
<path d="M214.051 148.16H257.131C260.262 148.16 262.799 145.622 262.799 142.491V59.584C262.799 56.454 260.262 53.916 257.131 53.916H214.051C210.92 53.916 208.383 56.454 208.383 59.584V142.491C208.383 145.622 210.92 148.16 214.051 148.16Z" fill="white"/>
</g>
<defs>
<clipPath id="clip0_8_2">
<rect width="407.096" height="407.096" fill="white"/>
</clipPath>
</defs>
</svg>
